<?xml version="1.0" encoding="UTF-8" standalone="no"?>
<!-- Created with Inkscape (http://www.inkscape.org/) -->

<svg
   xmlns:dc="http://purl.org/dc/elements/1.1/"
   xmlns:cc="http://creativecommons.org/ns#"
   xmlns:rdf="http://www.w3.org/1999/02/22-rdf-syntax-ns#"
   xmlns:svg="http://www.w3.org/2000/svg"
   xmlns="http://www.w3.org/2000/svg"
   xmlns:sodipodi="http://sodipodi.sourceforge.net/DTD/sodipodi-0.dtd"
   xmlns:inkscape="http://www.inkscape.org/namespaces/inkscape"
   width="60mm"
   height="69mm"
   viewBox="0 0 60 69"
   version="1.1"
   id="svg8"
   inkscape:version="0.92.3 (2405546, 2018-03-11)"
   sodipodi:docname="absol-logo.svg">
  <defs
     id="defs2" />
  <sodipodi:namedview
     id="base"
     pagecolor="#ffffff"
     bordercolor="#666666"
     borderopacity="1.0"
     inkscape:pageopacity="0.0"
     inkscape:pageshadow="2"
     inkscape:zoom="0.98994949"
     inkscape:cx="25.382647"
     inkscape:cy="138.77302"
     inkscape:document-units="mm"
     inkscape:current-layer="layer1"
     showgrid="false"
     inkscape:window-width="1366"
     inkscape:window-height="705"
     inkscape:window-x="-8"
     inkscape:window-y="128"
     inkscape:window-maximized="1" />
  <metadata
     id="metadata5">
    <rdf:RDF>
      <cc:Work
         rdf:about="">
        <dc:format>image/svg+xml</dc:format>
        <dc:type
           rdf:resource="http://purl.org/dc/dcmitype/StillImage" />
        <dc:title></dc:title>
      </cc:Work>
    </rdf:RDF>
  </metadata>
  <g
     inkscape:label="Layer 1"
     inkscape:groupmode="layer"
     id="layer1"
     transform="translate(0,-228)">
    <g
       id="g4676"
       transform="translate(-9.0871639,7.4835468)">
      <g
         id="g4643">
        <path
           style="color:#000000;font-style:normal;font-variant:normal;font-weight:normal;font-stretch:normal;font-size:medium;line-height:normal;font-family:sans-serif;font-variant-ligatures:normal;font-variant-position:normal;font-variant-caps:normal;font-variant-numeric:normal;font-variant-alternates:normal;font-feature-settings:normal;text-indent:0;text-align:start;text-decoration:none;text-decoration-line:none;text-decoration-style:solid;text-decoration-color:#000000;letter-spacing:normal;word-spacing:normal;text-transform:none;writing-mode:lr-tb;direction:ltr;text-orientation:mixed;dominant-baseline:auto;baseline-shift:baseline;text-anchor:start;white-space:normal;shape-padding:0;clip-rule:nonzero;display:inline;overflow:visible;visibility:visible;opacity:1;isolation:auto;mix-blend-mode:normal;color-interpolation:sRGB;color-interpolation-filters:linearRGB;solid-color:#000000;solid-opacity:1;vector-effect:none;fill:#26afa8;fill-opacity:1;fill-rule:evenodd;stroke:none;stroke-width:2.34949994;stroke-linecap:butt;stroke-linejoin:round;stroke-miterlimit:4;stroke-dasharray:none;stroke-dashoffset:0;stroke-opacity:1;color-rendering:auto;image-rendering:auto;shape-rendering:auto;text-rendering:auto;enable-background:accumulate"
           d="m 38.958984,227.70898 a 1.1748674,1.1748674 0 0 0 -0.615234,0.15625 l -20.529297,11.85352 a 1.1748674,1.1748674 0 0 0 -0.585937,1.01563 v 23.70507 a 1.1748674,1.1748674 0 0 0 0.585937,1.01758 l 20.529297,11.85352 a 1.1748674,1.1748674 0 0 0 1.175781,0 l 20.529297,-11.85352 a 1.1748674,1.1748674 0 0 0 0.585938,-1.01758 v -23.70507 a 1.1748674,1.1748674 0 0 0 -0.585938,-1.01563 L 39.519531,227.86523 a 1.1748674,1.1748674 0 0 0 -0.560547,-0.15625 z"
           id="path4601"
           inkscape:connector-curvature="0" />
        <path
           style="color:#000000;font-style:normal;font-variant:normal;font-weight:normal;font-stretch:normal;font-size:medium;line-height:normal;font-family:sans-serif;font-variant-ligatures:normal;font-variant-position:normal;font-variant-caps:normal;font-variant-numeric:normal;font-variant-alternates:normal;font-feature-settings:normal;text-indent:0;text-align:start;text-decoration:none;text-decoration-line:none;text-decoration-style:solid;text-decoration-color:#000000;letter-spacing:normal;word-spacing:normal;text-transform:none;writing-mode:lr-tb;direction:ltr;text-orientation:mixed;dominant-baseline:auto;baseline-shift:baseline;text-anchor:start;white-space:normal;shape-padding:0;clip-rule:nonzero;display:inline;overflow:visible;visibility:visible;opacity:1;isolation:auto;mix-blend-mode:normal;color-interpolation:sRGB;color-interpolation-filters:linearRGB;solid-color:#000000;solid-opacity:1;vector-effect:none;fill:#ffffff;fill-opacity:0.59116025;fill-rule:evenodd;stroke:none;stroke-width:2.34949994;stroke-linecap:butt;stroke-linejoin:round;stroke-miterlimit:4;stroke-dasharray:none;stroke-dashoffset:0;stroke-opacity:1;color-rendering:auto;image-rendering:auto;shape-rendering:auto;text-rendering:auto;enable-background:accumulate"
           d="M 38.923828,256.82617 A 1.1748674,1.1748674 0 0 0 38.375,256.96484 l -13,7 a 1.1748674,1.1748674 0 0 0 0,2.07032 l 13,7 a 1.1748674,1.1748674 0 0 0 1.113281,0 l 13,-7 a 1.1748674,1.1748674 0 0 0 0,-2.07032 l -13,-7 a 1.1748674,1.1748674 0 0 0 -0.564453,-0.13867 z"
           id="path4614"
           inkscape:connector-curvature="0" />
        <path
           style="color:#000000;font-style:normal;font-variant:normal;font-weight:normal;font-stretch:normal;font-size:medium;line-height:normal;font-family:sans-serif;font-variant-ligatures:normal;font-variant-position:normal;font-variant-caps:normal;font-variant-numeric:normal;font-variant-alternates:normal;font-feature-settings:normal;text-indent:0;text-align:start;text-decoration:none;text-decoration-line:none;text-decoration-style:solid;text-decoration-color:#000000;letter-spacing:normal;word-spacing:normal;text-transform:none;writing-mode:lr-tb;direction:ltr;text-orientation:mixed;dominant-baseline:auto;baseline-shift:baseline;text-anchor:start;white-space:normal;shape-padding:0;clip-rule:nonzero;display:inline;overflow:visible;visibility:visible;opacity:1;isolation:auto;mix-blend-mode:normal;color-interpolation:sRGB;color-interpolation-filters:linearRGB;solid-color:#000000;solid-opacity:1;vector-effect:none;fill:#ffffff;fill-opacity:0.2983426;fill-rule:evenodd;stroke:none;stroke-width:2.96333337;stroke-linecap:butt;stroke-linejoin:round;stroke-miterlimit:4;stroke-dasharray:none;stroke-dashoffset:0;stroke-opacity:1;color-rendering:auto;image-rendering:auto;shape-rendering:auto;text-rendering:auto;enable-background:accumulate"
           d="m 38.966797,232.40039 a 1.4818149,1.4818149 0 0 0 -0.775391,0.19727 l -13.992187,8.07812 a 1.4818149,1.4818149 0 0 0 -0.740235,1.2832 v 16.1543 a 1.4818149,1.4818149 0 0 0 0.740235,1.2832 l 13.992187,8.07813 a 1.4818149,1.4818149 0 0 0 1.480469,0 l 13.992187,-8.07813 a 1.4818149,1.4818149 0 0 0 0.740235,-1.2832 v -16.1543 a 1.4818149,1.4818149 0 0 0 -0.740235,-1.2832 l -13.992187,-8.07812 a 1.4818149,1.4818149 0 0 0 -0.705078,-0.19727 z"
           id="path4608"
           inkscape:connector-curvature="0" />
        <path
           style="color:#000000;font-style:normal;font-variant:normal;font-weight:normal;font-stretch:normal;font-size:medium;line-height:normal;font-family:sans-serif;font-variant-ligatures:normal;font-variant-position:normal;font-variant-caps:normal;font-variant-numeric:normal;font-variant-alternates:normal;font-feature-settings:normal;text-indent:0;text-align:start;text-decoration:none;text-decoration-line:none;text-decoration-style:solid;text-decoration-color:#000000;letter-spacing:normal;word-spacing:normal;text-transform:none;writing-mode:lr-tb;direction:ltr;text-orientation:mixed;dominant-baseline:auto;baseline-shift:baseline;text-anchor:start;white-space:normal;shape-padding:0;clip-rule:nonzero;display:inline;overflow:visible;visibility:visible;opacity:1;isolation:auto;mix-blend-mode:normal;color-interpolation:sRGB;color-interpolation-filters:linearRGB;solid-color:#000000;solid-opacity:1;vector-effect:none;fill:#c1ccc9;fill-opacity:0.43093926;fill-rule:evenodd;stroke:none;stroke-width:2.96333337;stroke-linecap:butt;stroke-linejoin:round;stroke-miterlimit:4;stroke-dasharray:none;stroke-dashoffset:0;stroke-opacity:1;color-rendering:auto;image-rendering:auto;shape-rendering:auto;text-rendering:auto;enable-background:accumulate"
           d="m 38.966797,232.40039 -0.0264,35.27233 m 0,0 c 0.252662,-0.001 0.505027,-0.0675 0.731478,-0.19811 l 13.992188,-8.07813 c 0.458188,-0.26486 0.74034,-0.75397 0.740233,-1.2832 v -16.1543 c 1.07e-4,-0.52923 -0.282045,-1.01834 -0.740233,-1.2832 l -13.992188,-8.07812 c -0.214825,-0.1237 -0.457251,-0.19152 -0.705078,-0.19727"
           id="path4608-4"
           inkscape:connector-curvature="0"
           sodipodi:nodetypes="cccccccccc" />
      </g>
      <g
         id="flowRoot4631"
         style="font-style:normal;font-variant:normal;font-weight:normal;font-stretch:normal;font-size:26.66666603px;line-height:125%;font-family:'UVN Mang Tre';-inkscape-font-specification:'UVN Mang Tre';text-align:center;text-anchor:middle;fill:#26af9d;fill-opacity:1;fill-rule:evenodd;stroke:none;stroke-width:8.88000011;stroke-linecap:butt;stroke-linejoin:round;stroke-miterlimit:4;stroke-dasharray:none;stroke-opacity:1"
         transform="matrix(0.35701629,0,0,0.35701629,-16.053632,-94.363675)"
         aria-label="absol.js">
        <path
           inkscape:connector-curvature="0"
           id="path4645"
           d="m 117.01465,1060.3444 0.66406,0.7422 q 0.71615,-0.3256 1.83594,-1.6407 0.95052,-1.1067 1.4974,-2.0442 0.29947,-2.3177 0.91145,-4.1537 l -0.27343,-0.1562 q -3.33334,2.1875 -4.63542,7.2526 z m 3.33333,-9.4922 2.21354,1.5365 q 0.13021,-0.2605 0.70313,-0.7422 0.57292,-0.4818 0.82031,-0.4818 0.53386,0 1.15886,0.7552 0.625,0.7552 0.625,1.3021 0,0.7031 -0.9375,2.5 -0.9375,1.7969 -0.9375,2.3828 0,3.2552 1.01562,4.987 l -3.03385,0.9245 q -0.70313,-1.4193 -0.80729,-4.1537 h -0.1823 q -1.0026,1.4193 -2.14843,2.5391 -1.62761,1.6146 -2.65625,1.6146 -0.89844,0 -1.99219,-1.4454 -1.06771,-1.3802 -1.06771,-2.3307 0,-2.1484 2.65625,-5.2864 2.26563,-2.6563 4.57031,-4.1016 z" />
        <path
           inkscape:connector-curvature="0"
           id="path4647"
           d="m 131.49382,1056.0996 -0.026,-0.052 0.0781,0.052 q 0.55989,-1.3021 2.33073,-3.1771 1.97916,-2.0703 3.05989,-2.0703 0.88542,0 1.66667,1.0156 0.72917,0.9636 0.72917,1.888 0,3.0079 -2.79948,6.6927 -2.95573,3.8933 -5.8724,3.8933 -1.21094,0 -2.39583,-1.4974 -1.14583,-1.4193 -1.14583,-2.6693 0,-0.5989 0.96354,-2.2656 0.23437,-0.4037 1.0026,-4.7787 0.88542,-5.052 1.97917,-7.4349 0.36458,-0.7942 2.09635,-1.5885 1.61459,-0.7292 2.63021,-0.7292 0.53385,0 0.50781,0.4558 -0.26041,0.4687 -0.98958,1.7708 -2.96875,5.2474 -3.8151,10.4948 z m 3.94531,-1.1719 -0.53386,-0.4036 q -1.5625,0.8333 -3.08593,3.1119 -1.25,1.875 -1.25,2.5782 0,0.3515 0.59895,1.0807 0.52084,0.638 0.91146,0.9115 2.76042,-2.7995 3.35938,-7.2787 z" />
        <path
           inkscape:connector-curvature="0"
           id="path4649"
           d="m 139.63184,1062.2845 1.43229,-2.8776 q 0.88541,0.5859 2.1875,1.1458 1.51041,0.638 2.31771,0.638 0.9375,0 0.9375,-0.7422 0,-0.2473 -1.28907,-1.1197 -1.70573,-1.1459 -2.38281,-1.7709 -1.28906,-1.1849 -1.28906,-2.2005 0,-1.0547 1.3151,-2.6823 1.47136,-1.8229 2.92969,-1.8229 1.92708,0 4.73958,1.888 l -1.52343,2.3958 q -0.95052,-0.5468 -1.88802,-1.0937 -1.17188,-0.5859 -2.0573,-0.5859 -0.67708,0 -1.0677,0.5859 0.29947,0.4687 2.69531,2.3047 2.00521,1.5364 2.00521,2.6042 0,1.3802 -1.1849,3.0729 -1.39323,1.9922 -3.13802,1.9922 -2.05729,0 -4.73958,-1.7318 z" />
        <path
           inkscape:connector-curvature="0"
           id="path4651"
           d="m 156.20736,1050.8522 0.89844,0.9505 q 2.66927,-0.9505 3.04687,-0.9505 1.35417,0 1.35417,3.112 0,2.3698 -1.40625,4.8177 -1.28907,2.2396 -3.32032,3.8281 -1.78385,1.4063 -2.83854,1.4063 -1.18489,0 -2.26562,-1.5235 -0.98959,-1.4193 -0.98959,-2.6823 0,-2.539 1.62761,-5.2083 1.6276,-2.6693 3.89323,-3.75 z m -2.00521,10.3906 0.50781,0.3255 q 1.47136,-1.1198 2.36979,-2.7213 0.96355,-1.7057 0.96355,-3.4636 0,-1.1718 -0.48178,-2.6171 h -0.48177 q -1.30208,1.289 -2.13541,3.4895 -0.79427,2.1094 -0.79427,4.0365 0,0.1562 0.026,0.4818 0.026,0.3125 0.026,0.4687 z" />
        <path
           inkscape:connector-curvature="0"
           id="path4653"
           d="m 166.91048,1063.1439 -3.33333,0.8724 q -0.16927,-0.5599 -0.16927,-2.6563 0,-3.0338 0.74218,-6.862 0.4948,-2.5521 0.91146,-3.789 0.69011,-2.0573 1.36719,-4.1146 1.1849,-3.2162 1.78385,-3.2162 0.58594,0 1.39323,1.2631 0.82031,1.25 0.82031,2.2916 0,0.7031 -0.97656,2.3568 -1.30208,2.2005 -1.80989,3.6328 -0.97657,2.7604 -0.97657,6.3021 0,2.5911 0.2474,3.9193 z" />
        <path
           inkscape:connector-curvature="0"
           id="path4655"
           d="m 169.85319,1062.4798 q 0,-1.1068 1.21094,-1.7318 0.97656,-0.5078 2.20052,-0.5078 0.49479,0 0.66406,0.1302 0.18229,0.1302 0.18229,0.586 0,0.2604 -0.1302,0.7682 -0.13021,0.4948 -0.13021,0.7552 0,0.7943 0.58593,1.7057 -0.85937,0.052 -1.19791,0.052 -3.38542,0 -3.38542,-1.7578 z" />
        <path
           inkscape:connector-curvature="0"
           id="path4657"
           d="m 179.64486,1052.3887 3.48958,-1.0027 q -0.39063,5.1693 -2.63021,11.862 -2.14844,6.4323 -3.20312,6.4323 -0.72917,0 -1.47136,-1.4062 -0.66406,-1.2761 -0.66406,-2.1224 0,-0.7683 0.79427,-2.0183 1.51042,-2.3828 2.26563,-3.9583 1.13281,-2.3958 1.41927,-7.7864 z m 0.79427,-4.7657 q 0,-0.7422 1.11979,-1.5104 1.05469,-0.7031 1.84896,-0.7031 0.48177,0 0.58593,0.5729 0.026,0.1172 0.026,0.9505 0,0.638 0.63802,1.7578 -1.17188,0.2865 -1.94011,0.2865 -2.27864,0 -2.27864,-1.3542 z" />
        <path
           inkscape:connector-curvature="0"
           id="path4659"
           d="m 184.00683,1062.2845 1.4323,-2.8776 q 0.88541,0.5859 2.1875,1.1458 1.51041,0.638 2.3177,0.638 0.9375,0 0.9375,-0.7422 0,-0.2473 -1.28906,-1.1197 -1.70573,-1.1459 -2.38281,-1.7709 -1.28906,-1.1849 -1.28906,-2.2005 0,-1.0547 1.3151,-2.6823 1.47136,-1.8229 2.92969,-1.8229 1.92708,0 4.73958,1.888 l -1.52344,2.3958 q -0.95052,-0.5468 -1.88802,-1.0937 -1.17187,-0.5859 -2.05729,-0.5859 -0.67708,0 -1.06771,0.5859 0.29948,0.4687 2.69532,2.3047 2.0052,1.5364 2.0052,2.6042 0,1.3802 -1.18489,3.0729 -1.39323,1.9922 -3.13802,1.9922 -2.05729,0 -4.73959,-1.7318 z" />
      </g>
    </g>
  </g>
</svg>
